<?xml version="1.0" encoding="UTF-8"?>
<svg version="1.1" xmlns="http://www.w3.org/2000/svg" width="1024" height="1024">
<path d="M0 0 C337.92 0 675.84 0 1024 0 C1024 337.92 1024 675.84 1024 1024 C686.08 1024 348.16 1024 0 1024 C0 686.08 0 348.16 0 0 Z " fill="#FCFCFC" transform="translate(0,0)"/>
<path d="M0 0 C0.96091553 0.00491455 1.92183105 0.0098291 2.91186523 0.01489258 C21.97032994 0.32436053 40.81284769 5.37115089 55.1875 18.5 C70.79919558 35.34419786 74.03956481 60.70647753 73.54296875 82.76953125 C73.49076172 84.02830078 73.49076172 84.02830078 73.4375 85.3125 C73.99767822 85.34263184 74.55785645 85.37276367 75.13500977 85.40380859 C82.82326935 85.97971397 89.973134 87.84597516 97.375 89.9375 C98.33150955 90.20543869 98.33150955 90.20543869 99.30734253 90.47879028 C110.24098412 93.54938945 120.93782254 96.97814591 131.4375 101.3125 C132.63197754 101.80073242 132.63197754 101.80073242 133.85058594 102.29882812 C151.37484263 109.55641813 168.29382327 118.53681824 182.4375 131.3125 C183.74074219 132.45525391 183.74074219 132.45525391 185.0703125 133.62109375 C187.55596845 135.82108476 190.00169672 138.05759403 192.4375 140.3125 C193.02917969 140.8384375 193.62085938 141.364375 194.23046875 141.90625 C217.42407244 163.50219453 230.88900899 199.13667717 232.4375 230.3125 C232.61878356 235.93712918 232.6651408 241.56124774 232.67773438 247.18847656 C232.68737768 249.77963146 232.71846293 252.3699697 232.75 254.9609375 C232.84671242 270.08951003 231.31540541 285.02724868 226.6875 299.5 C226.43073486 300.32330811 226.17396973 301.14661621 225.90942383 301.99487305 C218.23132498 325.91128499 205.05455645 345.85227052 187.74023438 363.94677734 C186.68460557 365.05344667 185.64453086 366.17493866 184.609375 367.30078125 C149.45344944 404.49859138 90.9248153 420.04697672 41.4375 422.3125 C34.02169009 422.45953183 26.6042123 422.40727835 19.1875 422.375 C17.17057403 422.36997471 15.15364684 422.36541362 13.13671875 422.36132812 C8.23694878 422.35040468 3.33723804 422.33319684 -1.5625 422.3125 C-1.36922229 430.93724684 -1.16134798 439.56147375 -0.93563366 448.18542671 C-0.83122839 452.19136086 -0.73155968 456.19728808 -0.64331055 460.20361328 C-0.55770888 464.08138042 -0.45888903 467.95861955 -0.35149574 471.83584213 C-0.31305546 473.30343281 -0.27910912 474.77114942 -0.25008202 476.23895645 C-0.01244826 488.0188026 0.69847104 500.28985448 6.375 510.875 C6.85839844 511.80441406 7.34179688 512.73382812 7.83984375 513.69140625 C13.78864965 523.45093866 21.5936377 527.56335181 32.4375 530.3125 C32.4375 534.9325 32.4375 539.5525 32.4375 544.3125 C-11.1225 544.3125 -54.6825 544.3125 -99.5625 544.3125 C-99.5625 530.3125 -99.5625 530.3125 -98.5625 529.3125 C-97.08515124 529.09164382 -95.60550065 528.88613191 -94.125 528.6875 C-86.08716192 527.11212973 -79.89195432 522.66661366 -75.1875 516 C-58.96617344 488.78116391 -65.15209723 446.85780736 -64.5625 416.3125 C-65.55361031 416.22386436 -65.55361031 416.22386436 -66.56474304 416.13343811 C-105.54208226 412.47612949 -143.85740967 392.42135453 -171.5625 365.3125 C-172.22378906 364.70148438 -172.88507813 364.09046875 -173.56640625 363.4609375 C-198.54724804 339.92910046 -211.6987744 303.81808958 -214.5625 270.3125 C-214.5625 263.3825 -214.5625 256.4525 -214.5625 249.3125 C-189.8125 249.3125 -165.0625 249.3125 -139.5625 249.3125 C-139.2325 256.5725 -138.9025 263.8325 -138.5625 271.3125 C-135.59036111 292.86050698 -127.95166465 308.99597935 -113.5625 325.3125 C-113.03527344 325.92351562 -112.50804687 326.53453125 -111.96484375 327.1640625 C-99.87762698 340.2096008 -83.05507487 349.23363333 -66.5625 355.3125 C-65.61372438 333.28888648 -65.27662968 311.27279507 -65.03027344 289.23205566 C-64.96991995 283.9099978 -64.90449359 278.58799988 -64.83997345 273.26599121 C-64.74371578 265.28153233 -64.65367413 257.29702579 -64.5625 249.3125 C-43.7725 249.3125 -22.9825 249.3125 -1.5625 249.3125 C-1.5625 287.9225 -1.5625 326.5325 -1.5625 366.3125 C45.60034597 364.83866106 95.52616298 361.66247454 131.4375 327.3125 C132.12585938 326.69890625 132.81421875 326.0853125 133.5234375 325.453125 C149.99606952 310.21756811 159.66366855 284.92607265 160.58276367 262.81835938 C160.60318645 259.52436356 160.62318241 256.23058248 160.62280273 252.93652344 C160.62496587 250.8454885 160.64309634 248.75500281 160.66210938 246.6640625 C160.78655388 217.17832929 152.80152615 192.39967143 132.375 170.75 C106.94060131 146.23025465 70.42692645 134.88064089 38.09310913 122.43411255 C17.17215915 114.3705463 -3.7896174 105.93214628 -23.5625 95.3125 C-24.64015625 94.74402344 -25.7178125 94.17554688 -26.828125 93.58984375 C-39.00846847 86.87229252 -49.77230384 77.67462613 -54.5625 64.3125 C-58.07205482 49.90355308 -54.93601998 34.30224644 -47.89453125 21.453125 C-40.51599355 9.59553363 -28.5775639 4.49836308 -15.3828125 1.22265625 C-10.24464647 0.12021041 -5.24134083 -0.03197352 0 0 Z " fill="#040404" transform="translate(505.5625,296.6875)"/>
<path d="M0 0 C0.91997772 0.00215515 1.83995544 0.0043103 2.78781128 0.00653076 C58.67457355 0.21598278 111.1498178 16.9110041 152.5 55.3125 C153.46486328 56.17875 153.46486328 56.17875 154.44921875 57.0625 C184.01921739 84.83474191 197.68052161 124.83980255 200.5 164.3125 C177.07 164.3125 153.64 164.3125 129.5 164.3125 C127.85 156.0625 126.2 147.8125 124.5 139.3125 C114.64544176 106.83725124 92.96665221 82.11556356 63.25 66.0625 C42.49937521 55.2506723 20.52942676 51.08091579 -2.75 51.0625 C-3.51221863 51.06182526 -4.27443726 51.06115051 -5.05975342 51.06045532 C-39.49029902 51.10890313 -70.78209869 60.63651364 -95.6171875 85.42578125 C-111.81583001 102.66441442 -122.02930114 128.68341738 -122.5 152.3125 C-122.52433105 152.98039551 -122.54866211 153.64829102 -122.57373047 154.33642578 C-123.53892379 182.09922262 -116.24368028 207.34277386 -97.5 228.3125 C-93.08937244 233.03294342 -88.42533904 237.20081954 -83.25 241.0625 C-82.56744141 241.57200195 -81.88488281 242.08150391 -81.18164062 242.60644531 C-68.24520222 252.0492288 -53.9327264 259.44606109 -39.5 266.3125 C-38.77232422 266.66570312 -38.04464844 267.01890625 -37.29492188 267.3828125 C-15.93138948 277.71243256 6.48946675 285.6860267 28.68740845 294.01014709 C31.7223358 295.14961462 34.75500074 296.29503362 37.78747559 297.44100952 C39.85090597 298.21741723 41.91788182 298.98369625 43.98535156 299.74926758 C50.8492166 302.32029795 57.5030055 305.15734434 64.0703125 308.41796875 C64.71951157 308.73934311 65.36871063 309.06071747 66.0375824 309.39183044 C82.22006516 317.62177132 93.46245262 329.6750275 99.75390625 346.70703125 C105.37933551 364.79856855 103.67670266 384.65963523 95.75 401.8125 C90.4535986 411.46753596 83.37658954 418.35206041 73.5 423.3125 C70.66796875 424 70.66796875 424 68.5 424.3125 C68.82484375 423.34376953 68.82484375 423.34376953 69.15625 422.35546875 C72.26748378 411.82624702 74.26645029 397.9363229 69.4375 387.625 C68.07671109 385.36458548 68.07671109 385.36458548 66.5 383.3125 C65.99210937 382.61125 65.48421875 381.91 64.9609375 381.1875 C53.15615195 366.41753135 33.07734534 360.12229905 15.6875 354.5625 C14.12981779 354.05474473 12.5725351 353.5457624 11.015625 353.03564453 C7.79242206 351.98078035 4.56760987 350.93109086 1.34130859 349.88574219 C-77.89139816 324.18273093 -77.89139816 324.18273093 -109.5 307.3125 C-110.14549805 306.97573242 -110.79099609 306.63896484 -111.45605469 306.29199219 C-126.23418401 298.55380952 -139.45162789 288.86135419 -151.5 277.3125 C-152.39074219 276.48492187 -153.28148437 275.65734375 -154.19921875 274.8046875 C-175.97278761 253.97251422 -188.99463036 224.88295425 -193.5 195.3125 C-193.70367187 194.02859375 -193.90734375 192.7446875 -194.1171875 191.421875 C-199.92822101 151.48964474 -190.90154406 110.31755197 -167.5 77.3125 C-164.6415884 73.50931829 -161.63927058 69.88592503 -158.5 66.3125 C-157.79359375 65.48492187 -157.0871875 64.65734375 -156.359375 63.8046875 C-128.35256355 31.66737508 -88.61688923 12.52651419 -47.3125 4.0625 C-46.57837891 3.91135742 -45.84425781 3.76021484 -45.08789062 3.60449219 C-30.08922189 0.72812411 -15.23713021 -0.06448886 0 0 Z " fill="#040404" transform="translate(509.5,183.6875)"/>
<path d="M0 0 C0.99 0 1.98 0 3 0 C3 2.64 3 5.28 3 8 C2.01 8.33 1.02 8.66 0 9 C0 6.03 0 3.06 0 0 Z " fill="#E9E8E9" transform="translate(437,776)"/>
</svg>
